<mxfile host="app.diagrams.net" agent="Mozilla/5.0 (Windows NT 10.0; Win64; x64) AppleWebKit/537.36 (KHTML, like Gecko) Chrome/129.0.0.0 Safari/537.36" version="24.7.17">
  <diagram name="Sida-1" id="k1a8k7AFnvJiHplNe-Nh">
    <mxGraphModel dx="2271" dy="895" grid="1" gridSize="10" guides="1" tooltips="1" connect="1" arrows="1" fold="1" page="1" pageScale="1" pageWidth="827" pageHeight="1169" math="0" shadow="0">
      <root>
        <mxCell id="0" />
        <mxCell id="1" parent="0" />
        <mxCell id="kMmluiraNvAry0Kr71Hb-17" style="rounded=0;orthogonalLoop=1;jettySize=auto;html=1;endArrow=none;endFill=0;" edge="1" parent="1" source="kMmluiraNvAry0Kr71Hb-2" target="kMmluiraNvAry0Kr71Hb-10">
          <mxGeometry relative="1" as="geometry" />
        </mxCell>
        <mxCell id="kMmluiraNvAry0Kr71Hb-2" value="User&lt;div&gt;&lt;br&gt;&lt;/div&gt;" style="shape=umlActor;verticalLabelPosition=bottom;verticalAlign=top;html=1;outlineConnect=0;" vertex="1" parent="1">
          <mxGeometry x="-90" y="420" width="116" height="180" as="geometry" />
        </mxCell>
        <mxCell id="kMmluiraNvAry0Kr71Hb-19" style="rounded=0;orthogonalLoop=1;jettySize=auto;html=1;entryX=1;entryY=0.5;entryDx=0;entryDy=0;endArrow=none;endFill=0;" edge="1" parent="1" target="kMmluiraNvAry0Kr71Hb-16">
          <mxGeometry relative="1" as="geometry">
            <mxPoint x="750" y="494.11764705882365" as="sourcePoint" />
          </mxGeometry>
        </mxCell>
        <mxCell id="kMmluiraNvAry0Kr71Hb-15" style="rounded=0;orthogonalLoop=1;jettySize=auto;html=1;endArrow=none;endFill=0;" edge="1" parent="1" target="kMmluiraNvAry0Kr71Hb-14">
          <mxGeometry relative="1" as="geometry">
            <mxPoint x="20" y="744.1584158415842" as="sourcePoint" />
          </mxGeometry>
        </mxCell>
        <mxCell id="kMmluiraNvAry0Kr71Hb-9" value="" style="swimlane;startSize=0;" vertex="1" parent="1">
          <mxGeometry x="130" y="280" width="550" height="790" as="geometry" />
        </mxCell>
        <mxCell id="kMmluiraNvAry0Kr71Hb-4" value="&lt;font style=&quot;font-size: 18px;&quot;&gt;ChatterBox&lt;/font&gt;" style="text;html=1;align=center;verticalAlign=middle;whiteSpace=wrap;rounded=0;" vertex="1" parent="kMmluiraNvAry0Kr71Hb-9">
          <mxGeometry x="169" width="230" height="80" as="geometry" />
        </mxCell>
        <mxCell id="kMmluiraNvAry0Kr71Hb-18" style="rounded=0;orthogonalLoop=1;jettySize=auto;html=1;" edge="1" parent="kMmluiraNvAry0Kr71Hb-9" source="kMmluiraNvAry0Kr71Hb-10" target="kMmluiraNvAry0Kr71Hb-16">
          <mxGeometry relative="1" as="geometry" />
        </mxCell>
        <mxCell id="kMmluiraNvAry0Kr71Hb-20" value="Include" style="edgeLabel;html=1;align=center;verticalAlign=middle;resizable=0;points=[];fontFamily=Helvetica;fontSize=11;fontColor=default;labelBackgroundColor=default;" vertex="1" connectable="0" parent="kMmluiraNvAry0Kr71Hb-18">
          <mxGeometry x="-0.0833" y="-3" relative="1" as="geometry">
            <mxPoint as="offset" />
          </mxGeometry>
        </mxCell>
        <mxCell id="kMmluiraNvAry0Kr71Hb-21" style="edgeStyle=none;rounded=0;orthogonalLoop=1;jettySize=auto;html=1;strokeColor=default;align=center;verticalAlign=middle;fontFamily=Helvetica;fontSize=11;fontColor=default;labelBackgroundColor=default;endArrow=none;endFill=0;startArrow=classic;startFill=1;" edge="1" parent="kMmluiraNvAry0Kr71Hb-9" source="kMmluiraNvAry0Kr71Hb-10" target="kMmluiraNvAry0Kr71Hb-11">
          <mxGeometry relative="1" as="geometry" />
        </mxCell>
        <mxCell id="kMmluiraNvAry0Kr71Hb-22" value="Extend" style="edgeLabel;html=1;align=center;verticalAlign=middle;resizable=0;points=[];fontFamily=Helvetica;fontSize=11;fontColor=default;labelBackgroundColor=default;" vertex="1" connectable="0" parent="kMmluiraNvAry0Kr71Hb-21">
          <mxGeometry x="0.0471" y="5" relative="1" as="geometry">
            <mxPoint as="offset" />
          </mxGeometry>
        </mxCell>
        <mxCell id="kMmluiraNvAry0Kr71Hb-25" style="edgeStyle=none;shape=connector;rounded=0;orthogonalLoop=1;jettySize=auto;html=1;strokeColor=default;align=center;verticalAlign=middle;fontFamily=Helvetica;fontSize=11;fontColor=default;labelBackgroundColor=default;endArrow=none;endFill=0;startArrow=classic;startFill=1;" edge="1" parent="kMmluiraNvAry0Kr71Hb-9" source="kMmluiraNvAry0Kr71Hb-10" target="kMmluiraNvAry0Kr71Hb-13">
          <mxGeometry relative="1" as="geometry" />
        </mxCell>
        <mxCell id="kMmluiraNvAry0Kr71Hb-26" value="Extend" style="edgeLabel;html=1;align=center;verticalAlign=middle;resizable=0;points=[];fontFamily=Helvetica;fontSize=11;fontColor=default;labelBackgroundColor=default;" vertex="1" connectable="0" parent="kMmluiraNvAry0Kr71Hb-25">
          <mxGeometry x="0.2292" y="2" relative="1" as="geometry">
            <mxPoint as="offset" />
          </mxGeometry>
        </mxCell>
        <mxCell id="kMmluiraNvAry0Kr71Hb-27" style="edgeStyle=none;shape=connector;rounded=0;orthogonalLoop=1;jettySize=auto;html=1;strokeColor=default;align=center;verticalAlign=middle;fontFamily=Helvetica;fontSize=11;fontColor=default;labelBackgroundColor=default;endArrow=none;endFill=0;startArrow=classic;startFill=1;" edge="1" parent="kMmluiraNvAry0Kr71Hb-9" source="kMmluiraNvAry0Kr71Hb-10" target="kMmluiraNvAry0Kr71Hb-12">
          <mxGeometry relative="1" as="geometry" />
        </mxCell>
        <mxCell id="kMmluiraNvAry0Kr71Hb-28" value="Extend&lt;div&gt;&lt;br&gt;&lt;/div&gt;" style="edgeLabel;html=1;align=center;verticalAlign=middle;resizable=0;points=[];fontFamily=Helvetica;fontSize=11;fontColor=default;labelBackgroundColor=default;" vertex="1" connectable="0" parent="kMmluiraNvAry0Kr71Hb-27">
          <mxGeometry x="0.6778" y="3" relative="1" as="geometry">
            <mxPoint y="-1" as="offset" />
          </mxGeometry>
        </mxCell>
        <mxCell id="kMmluiraNvAry0Kr71Hb-29" style="edgeStyle=none;shape=connector;rounded=0;orthogonalLoop=1;jettySize=auto;html=1;strokeColor=default;align=center;verticalAlign=middle;fontFamily=Helvetica;fontSize=11;fontColor=default;labelBackgroundColor=default;endArrow=none;endFill=0;startArrow=classic;startFill=1;" edge="1" parent="kMmluiraNvAry0Kr71Hb-9" source="kMmluiraNvAry0Kr71Hb-10" target="kMmluiraNvAry0Kr71Hb-14">
          <mxGeometry relative="1" as="geometry" />
        </mxCell>
        <mxCell id="kMmluiraNvAry0Kr71Hb-30" value="Extend" style="edgeLabel;html=1;align=center;verticalAlign=middle;resizable=0;points=[];fontFamily=Helvetica;fontSize=11;fontColor=default;labelBackgroundColor=default;" vertex="1" connectable="0" parent="kMmluiraNvAry0Kr71Hb-29">
          <mxGeometry x="-0.1253" y="-2" relative="1" as="geometry">
            <mxPoint y="-1" as="offset" />
          </mxGeometry>
        </mxCell>
        <mxCell id="kMmluiraNvAry0Kr71Hb-10" value="Login" style="ellipse;whiteSpace=wrap;html=1;" vertex="1" parent="kMmluiraNvAry0Kr71Hb-9">
          <mxGeometry x="70" y="130" width="120" height="80" as="geometry" />
        </mxCell>
        <mxCell id="kMmluiraNvAry0Kr71Hb-11" value="Write Post" style="ellipse;whiteSpace=wrap;html=1;" vertex="1" parent="kMmluiraNvAry0Kr71Hb-9">
          <mxGeometry x="260" y="320" width="120" height="80" as="geometry" />
        </mxCell>
        <mxCell id="kMmluiraNvAry0Kr71Hb-12" value="Delete Post" style="ellipse;whiteSpace=wrap;html=1;" vertex="1" parent="kMmluiraNvAry0Kr71Hb-9">
          <mxGeometry x="90" y="370" width="120" height="80" as="geometry" />
        </mxCell>
        <mxCell id="kMmluiraNvAry0Kr71Hb-13" value="View own Messages" style="ellipse;whiteSpace=wrap;html=1;" vertex="1" parent="kMmluiraNvAry0Kr71Hb-9">
          <mxGeometry x="380" y="240" width="120" height="80" as="geometry" />
        </mxCell>
        <mxCell id="kMmluiraNvAry0Kr71Hb-14" value="View all Messages" style="ellipse;whiteSpace=wrap;html=1;" vertex="1" parent="kMmluiraNvAry0Kr71Hb-9">
          <mxGeometry x="270" y="520" width="120" height="80" as="geometry" />
        </mxCell>
        <mxCell id="kMmluiraNvAry0Kr71Hb-16" value="Check Credentials&lt;div&gt;&lt;br&gt;&lt;/div&gt;" style="ellipse;whiteSpace=wrap;html=1;" vertex="1" parent="kMmluiraNvAry0Kr71Hb-9">
          <mxGeometry x="320" y="100" width="120" height="80" as="geometry" />
        </mxCell>
        <mxCell id="kMmluiraNvAry0Kr71Hb-31" value="&lt;div&gt;Guest&lt;/div&gt;" style="shape=umlActor;verticalLabelPosition=bottom;verticalAlign=top;html=1;outlineConnect=0;" vertex="1" parent="1">
          <mxGeometry x="-90" y="660" width="116" height="180" as="geometry" />
        </mxCell>
        <mxCell id="kMmluiraNvAry0Kr71Hb-32" value="&lt;div&gt;System&lt;/div&gt;" style="shape=umlActor;verticalLabelPosition=bottom;verticalAlign=top;html=1;outlineConnect=0;" vertex="1" parent="1">
          <mxGeometry x="750" y="405" width="116" height="180" as="geometry" />
        </mxCell>
      </root>
    </mxGraphModel>
  </diagram>
</mxfile>
